<svg width="100" height="133" viewBox="0 0 100 133" fill="none" xmlns="http://www.w3.org/2000/svg">
<path d="M51.1018 125.262C73.511 125.262 91.6773 114.766 91.6773 101.819C91.6773 88.8724 73.511 78.3768 51.1018 78.3768C28.6926 78.3768 10.5264 88.8724 10.5264 101.819C10.5264 114.766 28.6926 125.262 51.1018 125.262Z" fill="#E0E0E0"/>
<path d="M88.2924 31.957H13.8572L20.3458 97.7388C20.7459 101.949 23.7307 106.094 29.3001 109.308C41.3148 116.257 60.7807 116.257 72.7954 109.308C78.3648 106.062 81.3388 101.949 81.7497 97.7388L88.2924 31.957Z" fill="#37474F"/>
<path d="M51.0803 52.293C71.6679 52.293 88.3574 42.6503 88.3574 30.7554C88.3574 18.8605 71.6679 9.21777 51.0803 9.21777C30.4927 9.21777 13.8032 18.8605 13.8032 30.7554C13.8032 42.6503 30.4927 52.293 51.0803 52.293Z" fill="#455A64"/>
<path d="M51.0804 49.2196C41.6503 49.2196 32.8366 47.1308 26.2074 43.3319C20.1621 39.8361 16.8313 35.3663 16.8313 30.7557C16.8313 26.1451 20.1621 21.6753 26.2074 18.1795C32.7933 14.3806 41.607 12.281 51.0804 12.281C60.5538 12.281 69.3242 14.3806 75.8993 18.1795C81.9554 21.6753 85.2862 26.1451 85.2862 30.7557C85.2862 35.3663 81.9554 39.8361 75.8993 43.3319C69.3242 47.1308 60.5105 49.2196 51.0804 49.2196Z" fill="#37474F"/>
<path opacity="0.1" d="M76.667 35.1175C74.807 33.7214 71.4978 34.9877 70.1784 33.0395C69.7675 32.4226 69.6918 31.5893 69.097 31.1131C67.3667 29.6844 64.7712 33.559 62.9328 32.1954C62.2623 31.7083 62.0893 30.6693 61.3431 30.3338C60.7915 30.0957 60.1643 30.3338 59.5695 30.3338C58.9302 30.2248 58.3327 29.9436 57.8411 29.5202C57.3495 29.0969 56.9824 28.5475 56.7794 27.9311C56.3894 26.691 55.8094 25.5189 55.0599 24.457C54.4152 23.7552 53.5322 23.3191 52.5834 23.234C50.2475 23.0283 48.3334 24.9332 46.7653 26.6757C46.5166 26.9571 46.257 27.2385 46.0083 27.5307C45.564 28.0907 45.0171 28.5609 44.3969 28.916C44.0704 29.1068 43.6819 29.1612 43.3155 29.0675C43.121 28.9872 42.9449 28.8681 42.798 28.7173C42.6511 28.5666 42.5365 28.3875 42.4612 28.1909C41.8015 26.7622 41.9529 24.5652 40.4281 24.1647C40.0172 24.0565 39.5305 24.1106 39.2061 23.8292C38.8816 23.5478 38.8925 23.1257 38.6654 22.8119C38.5023 22.6344 38.3029 22.4942 38.0809 22.4009C37.8588 22.3075 37.6192 22.2631 37.3784 22.2707C34.2423 22.0326 31.4738 24.1431 29.0406 26.1345C27.732 25.2687 27.5914 23.353 28.0889 21.8053C29.3434 18.0606 33.2906 15.9934 36.9891 14.6081C38.7194 13.9587 40.4822 13.3851 42.2557 12.8656C36.6068 13.5895 31.1444 15.3702 26.1531 18.1147C20.1079 21.6105 16.7771 26.0804 16.7771 30.691C16.7771 35.3015 20.1079 39.7714 26.1531 43.2672C32.7391 47.066 41.5528 49.1549 51.0262 49.1549C60.4995 49.1549 69.27 47.066 75.8451 43.2672L76.2344 43.0291C76.6021 42.2607 76.9374 41.4814 77.2294 40.6805C77.9756 38.8406 78.2784 36.3405 76.667 35.1175Z" fill="black"/>
<path d="M33.5611 104.524C31.9259 103.899 30.3422 103.146 28.8244 102.273C28.2621 101.949 27.743 101.624 27.2239 101.278C26.1787 100.281 25.5555 98.9214 25.4828 97.4787L21.7951 53.2238C21.6653 51.741 22.3358 51.1566 23.3524 51.8384C23.9508 52.2425 24.578 52.6321 25.234 53.0073C27.1142 54.0909 29.0821 55.0141 31.1171 55.7671C31.8452 56.0684 32.4792 56.5597 32.9529 57.1899C33.4265 57.82 33.7225 58.5659 33.8099 59.3495L35.9727 102.695C36.0323 103.005 36.0041 103.325 35.8914 103.619C35.7787 103.913 35.586 104.17 35.3351 104.36C35.0842 104.55 34.785 104.667 34.4715 104.696C34.158 104.725 33.8427 104.665 33.5611 104.524Z" fill="#263238"/>
<path d="M56.812 61.6329L56.0767 104.665C56.0598 105.402 55.769 106.107 55.2612 106.641C54.7533 107.175 54.0647 107.501 53.3298 107.555C51.8374 107.62 50.3234 107.62 48.8202 107.555C48.0873 107.498 47.4013 107.172 46.8957 106.638C46.39 106.103 46.1008 105.4 46.0842 104.665L45.3812 61.6329C45.3709 61.2882 45.4334 60.9453 45.5648 60.6265C45.6962 60.3077 45.8935 60.0203 46.1437 59.7832C46.3939 59.5461 46.6914 59.3646 47.0166 59.2507C47.3418 59.1367 47.6874 59.0929 48.0308 59.122C50.0733 59.2303 52.12 59.2303 54.1625 59.122C54.5058 59.0929 54.8514 59.1367 55.1767 59.2507C55.5019 59.3646 55.7994 59.5461 56.0496 59.7832C56.2998 60.0203 56.497 60.3077 56.6284 60.6265C56.7598 60.9453 56.8224 61.2882 56.812 61.6329Z" fill="#263238"/>
<path d="M80.4192 53.2237L76.6883 97.5111C76.6046 98.9566 75.979 100.317 74.9363 101.321C74.4281 101.656 73.8549 101.992 73.3358 102.306C71.8297 103.163 70.2607 103.905 68.6424 104.524C68.3614 104.667 68.046 104.729 67.7319 104.701C67.4178 104.674 67.1177 104.559 66.8655 104.37C66.6133 104.181 66.4191 103.925 66.305 103.63C66.191 103.336 66.1615 103.016 66.22 102.706L68.3828 59.3495C68.4702 58.5658 68.7662 57.82 69.2398 57.1898C69.7135 56.5597 70.3475 56.0684 71.0756 55.7671C73.1005 55.0111 75.0608 54.0917 76.937 53.0181C77.5967 52.6393 78.2347 52.2388 78.8403 51.8276C79.8569 51.1349 80.5382 51.7085 80.4192 53.2237Z" fill="#263238"/>
<path d="M19.0156 37.0541C20.941 39.6494 23.4103 41.7919 26.2504 43.3313C32.8364 47.1302 41.6501 49.219 51.1235 49.219C60.5968 49.219 69.3673 47.1302 75.9424 43.3313C77.8636 42.2465 79.6373 40.9188 81.2198 39.381C81.093 38.7347 80.8706 38.111 80.5601 37.5303C80.2317 36.9024 79.7543 36.3649 79.1697 35.9648C78.5852 35.5647 77.9115 35.3144 77.2077 35.2358C76.3966 35.2358 75.5964 35.4198 74.7961 35.3765C74.3938 35.3956 73.996 35.285 73.6611 35.0609C73.3263 34.8369 73.0722 34.5112 72.936 34.1319C72.8603 33.7747 72.9361 33.3959 72.882 33.0496C72.6981 32.108 71.5085 31.7075 70.5569 31.8807C69.6052 32.0539 68.7725 32.6059 67.8425 32.844C67.39 33.0083 66.8948 33.012 66.44 32.8544C65.9852 32.6967 65.5983 32.3873 65.3444 31.9781C65.1605 31.5235 65.2254 30.9824 64.9659 30.5603C64.4468 29.6837 62.9111 29.8785 62.4029 28.991C62.0027 28.2875 62.5002 27.4433 62.6191 26.6532C62.6603 25.9827 62.5 25.3151 62.1589 24.7364C61.8177 24.1578 61.3114 23.6946 60.705 23.4064C59.4876 22.8548 58.1697 22.5601 56.8334 22.5405C55.4009 22.2496 53.9121 22.4598 52.6158 23.1358C51.3614 24.0016 50.8964 25.5926 50.3016 26.9888C49.7068 28.3849 48.6037 29.846 47.0573 29.8352C47.0169 29.2033 46.8053 28.5944 46.4452 28.0739C46.0851 27.5533 45.5901 27.1407 45.0134 26.8805C44.3077 26.6435 43.5845 26.4626 42.8505 26.3394C40.6335 25.7333 38.5247 23.8826 36.3619 24.4778C35.4456 24.7991 34.6164 25.3289 33.9395 26.0255L30.3275 29.1966C29.4474 29.8397 28.7654 30.7172 28.3592 31.7292C28.2855 32.177 28.1547 32.6135 27.9699 33.0279C27.2886 34.1102 25.872 33.6773 24.823 33.6989C23.3858 33.5981 21.9617 34.0295 20.8216 34.9111C20.0745 35.489 19.4588 36.2195 19.0156 37.0541Z" fill="#B5F52C"/>
<path opacity="0.1" d="M75.8995 43.3317C77.8206 42.2469 79.5943 40.9192 81.1769 39.3813C81.1271 39.1582 81.0657 38.9379 80.993 38.7212C79.7286 39.762 78.2422 40.4984 76.6486 40.8737C75.0549 41.249 73.3964 41.2531 71.8008 40.8857C70.7574 40.5101 69.6641 40.2913 68.5565 40.2364C67.9949 40.2241 67.4478 40.4157 67.0164 40.7758C66.585 41.1359 66.2985 41.6402 66.2098 42.1953C66.2483 42.3407 66.2483 42.4936 66.2098 42.639C66.1556 42.7133 66.0859 42.7749 66.0057 42.8198C65.9254 42.8646 65.8364 42.8916 65.7448 42.8988C62.9114 43.5157 59.6887 41.8165 57.1798 43.2992C56.3749 43.959 55.5053 44.5356 54.5844 45.0201C53.4579 45.2401 52.2904 45.0802 51.2644 44.5655C50.9556 44.48 50.6707 44.3244 50.4317 44.1109C49.9991 43.6672 50.0099 42.9637 49.6746 42.455C49.3694 42.089 48.9797 41.803 48.5391 41.6217C47.0838 40.7151 45.3975 40.2491 43.6835 40.2797C42.662 40.4701 41.7081 40.925 40.9169 41.5991C40.1257 42.2732 39.5247 43.1429 39.1739 44.1218C35.1834 42.7256 32.296 38.0609 28.0892 38.5047C27.7215 37.2059 29.268 36.221 30.5657 35.8314C31.8634 35.4418 33.4747 34.8357 33.5288 33.4829C33.5288 32.9201 33.2693 32.4006 33.3342 31.8161C33.4315 31.0369 34.2101 30.3442 33.9722 29.5866C33.8094 29.2578 33.5939 28.958 33.3342 28.6991C32.975 28.2025 32.8272 27.5837 32.9232 26.9783L30.4467 29.1429C29.5666 29.7859 28.8846 30.6634 28.4785 31.6754C28.4048 32.1232 28.274 32.5597 28.0892 32.9742C27.4079 34.0565 25.9912 33.6236 24.9422 33.6452C23.505 33.5443 22.0809 33.9757 20.9409 34.8574C20.1835 35.4392 19.5602 36.1775 19.1133 37.0219C21.0387 39.6173 23.508 41.7598 26.3481 43.2992C32.934 47.0981 41.7477 49.1869 51.2211 49.1869C60.6945 49.1869 69.3243 47.1305 75.8995 43.3317Z" fill="black"/>
</svg>
