<svg width="22" height="16" viewBox="0 0 22 16" fill="none" xmlns="http://www.w3.org/2000/svg">
<path d="M17.25 9.99998V6.74998H14V5.24998H17.25V1.99998H18.75V5.24998H22V6.74998H18.75V9.99998H17.25ZM8 7.97498C6.9 7.97498 6 7.62498 5.3 6.92498C4.6 6.22498 4.25 5.32498 4.25 4.22498C4.25 3.12498 4.6 2.22498 5.3 1.52498C6 0.824976 6.9 0.474976 8 0.474976C9.1 0.474976 10 0.824976 10.7 1.52498C11.4 2.22498 11.75 3.12498 11.75 4.22498C11.75 5.32498 11.4 6.22498 10.7 6.92498C10 7.62498 9.1 7.97498 8 7.97498ZM0 16V13.65C0 13.0666 0.145833 12.5375 0.4375 12.0625C0.729167 11.5875 1.15 11.2333 1.7 11C2.95 10.45 4.0625 10.0625 5.0375 9.83747C6.0125 9.61247 7 9.49998 8 9.49998C9 9.49998 9.98333 9.61247 10.95 9.83747C11.9167 10.0625 13.025 10.45 14.275 11C14.825 11.25 15.25 11.6083 15.55 12.075C15.85 12.5416 16 13.0666 16 13.65V16H0Z" fill="white"/>
</svg>
