<svg width="24" height="16" viewBox="0 0 24 16" fill="none" xmlns="http://www.w3.org/2000/svg">
<path d="M0.949997 16V13.65C0.949997 13.0666 1.1 12.5375 1.4 12.0625C1.7 11.5875 2.11666 11.2333 2.65 11C3.86666 10.4666 4.9625 10.0833 5.9375 9.84998C6.9125 9.61664 7.91666 9.49998 8.95 9.49998C9.98333 9.49998 10.9833 9.61664 11.95 9.84998C12.9167 10.0833 14.0083 10.4666 15.225 11C15.7583 11.2333 16.1792 11.5875 16.4875 12.0625C16.7958 12.5375 16.95 13.0666 16.95 13.65V16H0.949997ZM18.45 16V13.65C18.45 12.6 18.1833 11.7375 17.65 11.0625C17.1167 10.3875 16.4167 9.84164 15.55 9.42498C16.7 9.55831 17.7833 9.75414 18.8 10.0125C19.8167 10.2708 20.6417 10.5666 21.275 10.9C21.825 11.2166 22.2583 11.6083 22.575 12.075C22.8917 12.5416 23.05 13.0666 23.05 13.65V16H18.45ZM8.95 7.97498C7.85 7.97498 6.95 7.62498 6.25 6.92498C5.55 6.22498 5.2 5.32498 5.2 4.22498C5.2 3.12498 5.55 2.22498 6.25 1.52498C6.95 0.824976 7.85 0.474976 8.95 0.474976C10.05 0.474976 10.95 0.824976 11.65 1.52498C12.35 2.22498 12.7 3.12498 12.7 4.22498C12.7 5.32498 12.35 6.22498 11.65 6.92498C10.95 7.62498 10.05 7.97498 8.95 7.97498ZM17.95 4.22498C17.95 5.32498 17.6 6.22498 16.9 6.92498C16.2 7.62498 15.3 7.97498 14.2 7.97498C14.0167 7.97498 13.8125 7.96248 13.5875 7.93748C13.3625 7.91248 13.1583 7.86664 12.975 7.79998C13.375 7.38331 13.6792 6.87081 13.8875 6.26248C14.0958 5.65414 14.2 4.97498 14.2 4.22498C14.2 3.47498 14.0958 2.81248 13.8875 2.23748C13.6792 1.66248 13.375 1.13331 12.975 0.649976C13.1583 0.599976 13.3625 0.558309 13.5875 0.524976C13.8125 0.491642 14.0167 0.474976 14.2 0.474976C15.3 0.474976 16.2 0.824976 16.9 1.52498C17.6 2.22498 17.95 3.12498 17.95 4.22498Z" fill="#918FA0"/>
</svg>
