<svg width="100" height="133" viewBox="0 0 100 133" fill="none" xmlns="http://www.w3.org/2000/svg">
<g clip-path="url(#clip0_1378_1545)">
<path d="M73.4804 122.88L74.8189 123.653L30.8438 130.494V129.513L73.4804 122.88Z" fill="#E0E0E0"/>
<path d="M30.8438 83.8575L70.0459 106.502V11.7509L30.8438 34.3984V83.8575Z" fill="#BA68C8"/>
<path opacity="0.4" d="M30.8438 83.8575L70.0459 106.502V11.7509L30.8438 34.3984V83.8575Z" fill="black"/>
<path d="M70.0459 106.502L30.8438 83.8575V129.128L70.0459 106.502Z" fill="#E0E0E0"/>
<path d="M70.0469 106.502L71.879 107.555V10.692L70.0469 11.7509V106.502Z" fill="#BA68C8"/>
<path opacity="0.4" d="M70.0469 106.502L71.879 107.555V10.692L70.0469 11.7509V106.502Z" fill="white"/>
<path opacity="0.1" d="M70.0469 106.502L71.879 107.555V10.692L70.0469 11.7509V106.502Z" fill="black"/>
<path d="M71.8792 107.555L75.0311 105.735V4.04651L27.8047 31.3116L27.8078 133L30.8448 131.245V34.3984L71.8792 10.692V107.555Z" fill="#BA68C8"/>
<path opacity="0.7" d="M71.8792 107.555L75.0311 105.735V4.04651L27.8047 31.3116L27.8078 133L30.8448 131.245V34.3984L71.8792 10.692V107.555Z" fill="white"/>
<path d="M75.0306 4.04651L27.8042 31.3116L26 30.262L73.2264 3L75.0306 4.04651Z" fill="#BA68C8"/>
<path opacity="0.85" d="M75.0306 4.04651L27.8042 31.3116L26 30.262L73.2264 3L75.0306 4.04651Z" fill="white"/>
<path d="M27.8048 133V31.3116L26.0006 30.262L25.9727 131.941L27.8048 133Z" fill="#BA68C8"/>
<path opacity="0.6" d="M26.0006 30.262L25.9727 131.941L27.8048 133V31.3116" fill="white"/>
<path d="M55.5119 102.285C55.1175 102.828 54.4219 106.632 54.4219 106.632C54.4219 106.632 55.3317 107.961 55.8566 108.365L57.5428 104.788L55.5119 102.285Z" fill="#263238"/>
<path d="M55.8555 108.35L58.9484 107.639L60.0974 105.257L56.8771 106.154L55.8555 108.35Z" fill="black"/>
<path d="M57.8167 99.8721C57.6397 99.7385 57.3851 100.086 56.7671 100.639C56.3324 101.027 55.3945 101.394 55.3945 102.502C55.3945 103.3 55.9256 104.285 56.4348 105.111C56.9441 105.937 57.0186 106.679 57.0155 107.853C57.0155 109.272 56.7547 110.142 58.4999 111.405C59.8973 112.415 62.7356 112.601 63.3598 112.026C64.428 111.027 61.9344 109.654 61.5276 107.608C60.9687 104.785 60.9066 104.313 60.9842 102.328L57.8167 99.8721Z" fill="#455A64"/>
<path d="M30.8438 129.68L74.8189 122.855V27.5573L30.8438 34.3984V129.68Z" fill="#455A64"/>
<path d="M73.4804 26.7841L74.8189 27.5573L30.8438 34.3984L33.1697 33.0538L73.4804 26.7841Z" fill="#37474F"/>
<path d="M36.0078 83.7365L66.782 78.9542V117.687L36.0078 122.467V83.7365Z" fill="#455A64"/>
<path opacity="0.1" d="M36.0078 83.7365L66.782 78.9542V117.687L36.0078 122.467V83.7365Z" fill="black"/>
<path d="M38.3164 85.7145L64.4729 81.6465V115.706L38.3164 119.774V85.7145Z" fill="#455A64"/>
<path d="M36.0078 122.467L38.3182 119.774L64.4747 115.706L66.782 117.688L36.0078 122.467Z" fill="#263238"/>
<path d="M36.0078 83.7365L38.3182 85.7146V119.774L36.0078 122.467V83.7365Z" fill="#37474F"/>
<path d="M64.4727 81.6466L66.7799 78.9542V117.687L64.4727 115.706V81.6466Z" fill="#37474F"/>
<path d="M53.4883 36.833L66.7793 34.7648V73.4981L53.4914 75.5631L53.4883 36.833Z" fill="#455A64"/>
<path opacity="0.1" d="M53.4883 36.833L66.7793 34.7648V73.4981L53.4914 75.5631L53.4883 36.833Z" fill="black"/>
<path d="M55.8008 38.811L64.4741 37.4602V71.5199L55.8008 72.8707V38.811Z" fill="#455A64"/>
<path d="M53.4922 75.5631L55.7995 72.8707L64.4728 71.5199L66.7801 73.498L53.4922 75.5631Z" fill="#263238"/>
<path d="M53.4883 36.833L55.7987 38.8111V72.8708L53.4914 75.5632L53.4883 36.833Z" fill="#37474F"/>
<path d="M64.4727 37.4603L66.7799 34.7648V73.4981L64.4727 71.52V37.4603Z" fill="#37474F"/>
<path d="M36.0273 39.5377L49.3183 37.4695V76.2028L36.0273 78.2679V39.5377Z" fill="#455A64"/>
<path opacity="0.1" d="M36.0273 39.5377L49.3183 37.4695V76.2028L36.0273 78.2679V39.5377Z" fill="black"/>
<path d="M38.3359 41.5159L47.0092 40.1619L47.0123 74.2247L38.3359 75.5755V41.5159Z" fill="#455A64"/>
<path d="M36.0273 78.2679L38.3346 75.5756L47.011 74.2247L49.3183 76.2029L36.0273 78.2679Z" fill="#263238"/>
<path d="M36.0273 39.5378L38.3346 41.5159V75.5756L36.0273 78.2679V39.5378Z" fill="#37474F"/>
<path d="M47.0078 40.1619L49.3182 37.4695V76.2028L47.0109 74.2247L47.0078 40.1619Z" fill="#37474F"/>
<path d="M68.8945 71.902L69.4939 72.5075V82.4571L68.8945 81.8547V71.902Z" fill="#E0E0E0"/>
<path d="M69.4961 72.5074L72.7288 72.0229V81.9757L69.4961 82.457V72.5074Z" fill="#FAFAFA"/>
<path opacity="0.05" d="M72.7288 74.762L69.4961 75.234V77.181L72.7288 76.7121V74.762Z" fill="black"/>
<path d="M72.7266 72.0231L72.1272 71.4207L68.8945 71.902L69.4939 72.5075L72.7266 72.0231Z" fill="#EBEBEB"/>
<path d="M70.7347 74.3924L72.219 75.883L72.8122 75.1067L71.3278 73.6192C71.2902 73.5802 71.2437 73.5509 71.1924 73.5336C71.1411 73.5163 71.0863 73.5116 71.0328 73.5198C70.9105 73.5485 70.8019 73.6186 70.7255 73.7182C70.6491 73.8178 70.6095 73.9409 70.6136 74.0664C70.6103 74.1866 70.6537 74.3035 70.7347 74.3924Z" fill="#E0E0E0"/>
<path opacity="0.1" d="M69.4961 75.2527L71.8531 75.5135V74.8055L72.4276 74.7217L71.8872 74.1782L69.4961 74.5416V75.2527Z" fill="black"/>
<path d="M64.6406 76.1066V77.6593L73.0624 76.3985V74.8458L64.6406 76.1066Z" fill="#FAFAFA"/>
<path d="M64.6388 76.1065L64.1016 75.5631V77.1189L64.6388 77.6592V76.1065Z" fill="#E0E0E0"/>
<path d="M73.0605 74.8458L72.5202 74.3024L64.1016 75.5632L64.6388 76.1066L73.0605 74.8458Z" fill="#EBEBEB"/>
<path d="M70.5669 78.7151C70.563 78.552 70.6152 78.3924 70.7146 78.2631C70.814 78.1337 70.9548 78.0422 71.1134 78.004C71.187 77.9971 71.2612 78.0067 71.3307 78.032C71.4001 78.0573 71.4631 78.0977 71.5151 78.1503C71.5671 78.2028 71.6068 78.2663 71.6313 78.336C71.6558 78.4058 71.6645 78.4801 71.6568 78.5536C71.6562 78.676 71.626 78.7965 71.5686 78.9046C71.5113 79.0128 71.4286 79.1055 71.3277 79.1747V80.1901C71.3293 80.2454 71.3121 80.2995 71.2787 80.3435C71.2454 80.3876 71.198 80.4189 71.1445 80.4324H71.0792C71.0543 80.4349 71.0291 80.4317 71.0055 80.4232C70.982 80.4147 70.9606 80.401 70.943 80.3831C70.9254 80.3652 70.9121 80.3436 70.904 80.3199C70.8958 80.2962 70.8931 80.2709 70.896 80.246V79.2306C70.795 79.1887 70.7092 79.1168 70.6504 79.0246C70.5915 78.9324 70.5623 78.8244 70.5669 78.7151Z" fill="#455A64"/>
</g>
<defs>
<clipPath id="clip0_1378_1545">
<rect width="100" height="133" fill="white"/>
</clipPath>
</defs>
</svg>
