<svg width="114" height="97" viewBox="0 0 114 97" fill="none" xmlns="http://www.w3.org/2000/svg">
<path d="M100.372 34.5914L104.406 81.3148C104.729 85.1181 102.406 88.4547 99.2195 88.7255L10.5556 96.3322C7.38617 96.6088 4.52214 93.716 4.21672 89.9184L0.182874 43.1892C0.102817 42.312 0.170996 41.4275 0.38456 40.573C1.01845 37.9625 2.94318 35.9629 5.35196 35.7842L94.0158 28.1718C96.4189 27.9643 98.6259 29.5836 99.7266 32.0385C100.081 32.848 100.299 33.7106 100.372 34.5914Z" fill="#FFC01D"/>
<path opacity="0.1" d="M100.372 34.5914L104.406 81.3148C104.729 85.1181 102.406 88.4547 99.2195 88.7255L10.5556 96.3322C7.38617 96.6088 4.52214 93.716 4.21672 89.9184L0.182874 43.1892C0.102817 42.312 0.170996 41.4275 0.38456 40.573C1.01845 37.9625 2.94318 35.9629 5.35196 35.7842L94.0158 28.1718C96.4189 27.9643 98.6259 29.5836 99.7266 32.0385C100.081 32.848 100.299 33.7106 100.372 34.5914Z" fill="black"/>
<path d="M104.342 26.2356L110.139 74.1576C110.606 78.0532 108.336 81.5684 105.085 81.9602L14.1569 92.9611C10.9067 93.353 7.85831 90.4832 7.38577 86.5818L1.58856 38.6656C1.47826 37.7644 1.5172 36.8513 1.70381 35.9629C2.28008 33.2602 4.17022 31.1568 6.64239 30.8572L97.571 19.8621C100.043 19.5624 102.394 21.1471 103.587 23.6366C103.98 24.4554 104.235 25.3336 104.342 26.2356Z" fill="#FFC01D"/>
<path opacity="0.1" d="M103.587 23.6366L62.3436 51.4067C60.3251 52.7864 58.0043 53.6601 55.577 53.954C53.1498 54.2479 50.6875 53.9533 48.398 53.0952L1.7207 35.9629C2.29697 33.2602 4.18711 31.1568 6.65928 30.8572L97.5879 19.8621C100.043 19.5624 102.394 21.1471 103.587 23.6366Z" fill="black"/>
<path d="M88.2023 33.9921L76.3543 41.9676L72.476 44.5838L62.3453 51.4067C60.379 52.7559 58.1225 53.6228 55.7587 53.9372C53.3949 54.2515 50.9903 54.0045 48.7397 53.2162L48.3767 53.0952L42.6947 51.0091L29.9017 46.3126L23.9201 44.117L17.1432 41.6275L16.6534 29.647L15.5527 3.02367L67.6066 0.908783L87.4474 15.9435L87.6548 21.0549L88.2023 33.9921Z" fill="#FFC01D"/>
<path opacity="0.7" d="M88.2023 33.9921L76.3543 41.9676L72.476 44.5838L62.3453 51.4067C60.379 52.7559 58.1225 53.6228 55.7587 53.9372C53.3949 54.2515 50.9903 54.0045 48.7397 53.2162L48.3767 53.0952L42.6947 51.0091L29.9017 46.3126L23.9201 44.117L17.1432 41.6275L16.6534 29.647L15.5527 3.02367L67.6066 0.908783L87.4474 15.9435L87.6548 21.0549L88.2023 33.9921Z" fill="#FAFAFA"/>
<g opacity="0.9">
<path d="M80.8654 21.2393L23.239 23.579C22.9176 23.5917 22.6039 23.4783 22.3649 23.2629C22.1259 23.0476 21.9805 22.7474 21.9597 22.4264C21.9486 22.106 22.0627 21.7938 22.2778 21.556C22.493 21.3183 22.7923 21.1737 23.1123 21.1529L80.7386 18.8133C81.06 18.8006 81.3737 18.914 81.6127 19.1293C81.8517 19.3446 81.9971 19.6448 82.0179 19.9658C82.0306 20.2866 81.917 20.5997 81.7015 20.8377C81.4861 21.0758 81.1859 21.22 80.8654 21.2393Z" fill="white"/>
<path d="M81.1701 28.8979L23.5437 31.2375C23.2223 31.2502 22.9086 31.1368 22.6696 30.9215C22.4306 30.7062 22.2852 30.406 22.2644 30.085C22.2532 29.7639 22.3671 29.4511 22.5821 29.2124C22.7972 28.9737 23.0965 28.8279 23.417 28.8057L81.0433 26.466C81.3643 26.4548 81.6772 26.5687 81.9159 26.7837C82.1546 26.9988 82.3004 27.2981 82.3226 27.6186C82.3324 27.9392 82.218 28.2513 82.0032 28.4897C81.7885 28.728 81.49 28.8743 81.1701 28.8979Z" fill="white"/>
<path d="M81.4828 36.5507L23.8564 38.8903C23.535 38.903 23.2213 38.7896 22.9823 38.5743C22.7433 38.3589 22.5979 38.0588 22.5771 37.7378C22.5645 37.4169 22.6781 37.1039 22.8935 36.8658C23.109 36.6277 23.4091 36.4836 23.7297 36.4642L81.356 34.1246C81.6768 34.1119 81.9899 34.2255 82.2279 34.441C82.466 34.6564 82.6102 34.9566 82.6295 35.2771C82.6422 35.597 82.5294 35.9092 82.3152 36.1471C82.101 36.3851 81.8022 36.5299 81.4828 36.5507Z" fill="white"/>
<path d="M76.3541 41.9675L72.4759 44.5838L29.9015 46.3126L23.9199 44.117C23.9697 44.111 24.02 44.111 24.0698 44.117L76.3541 41.9675Z" fill="white"/>
<path d="M60.581 51.5047V51.5508C60.5816 51.8643 60.4628 52.1664 60.2487 52.3955C60.0346 52.6245 59.7413 52.7635 59.4284 52.784L48.7618 53.2162L48.3987 53.0952L42.7168 51.0091L59.3305 50.3291C59.6508 50.3243 59.9604 50.4443 60.1938 50.6637C60.4272 50.8831 60.566 51.1847 60.581 51.5047Z" fill="white"/>
</g>
<path opacity="0.1" d="M87.4697 15.9435L73.6854 15.3499L67.6289 0.908783L87.4697 15.9435Z" fill="#263238"/>
<path d="M87.4697 15.9435L74.0946 13.6557L67.6289 0.908783L87.4697 15.9435Z" fill="#FFC01D"/>
<path d="M107.211 30.8777C110.701 27.6724 110.932 22.2445 107.727 18.7539C104.522 15.2634 99.0939 15.0321 95.6034 18.2373C92.1128 21.4425 91.8815 26.8705 95.0868 30.3611C98.292 33.8516 103.72 34.0829 107.211 30.8777Z" fill="#DE5753"/>
<path d="M103.11 20.4153V29.0592H100.724V23.4003C100.372 23.6719 99.9955 23.911 99.6002 24.1149C99.1613 24.3235 98.7066 24.4969 98.2402 24.6335V22.703C98.9166 22.5096 99.5515 22.1932 100.113 21.7695C100.556 21.405 100.913 20.9463 101.156 20.4268L103.11 20.4153Z" fill="white"/>
</svg>
