<svg width="20" height="20" viewBox="0 0 20 20" fill="none" xmlns="http://www.w3.org/2000/svg">
<path d="M3.55078 20C2.81745 20 2.19661 19.7458 1.68828 19.2375C1.17995 18.7292 0.925781 18.1083 0.925781 17.375V14.25H4.10078V0L5.60078 1.5L7.10078 0L8.57578 1.5L10.0758 0L11.5758 1.5L13.0758 0L14.5758 1.5L16.0758 0L17.5758 1.5L19.0758 0V17.375C19.0758 18.1083 18.8216 18.7292 18.3133 19.2375C17.8049 19.7458 17.1841 20 16.4508 20H3.55078ZM16.4508 18.5C16.7841 18.5 17.0549 18.3958 17.2633 18.1875C17.4716 17.9792 17.5758 17.7083 17.5758 17.375V2.5H5.60078V14.25H15.3258V17.375C15.3258 17.7083 15.4299 17.9792 15.6383 18.1875C15.8466 18.3958 16.1174 18.5 16.4508 18.5ZM6.92578 6.45V4.95H12.9258V6.45H6.92578ZM6.92578 9.8V8.3H12.9258V9.8H6.92578ZM15.2508 6.45C15.0508 6.45 14.8758 6.375 14.7258 6.225C14.5758 6.075 14.5008 5.9 14.5008 5.7C14.5008 5.5 14.5758 5.325 14.7258 5.175C14.8758 5.025 15.0508 4.95 15.2508 4.95C15.4508 4.95 15.6258 5.025 15.7758 5.175C15.9258 5.325 16.0008 5.5 16.0008 5.7C16.0008 5.9 15.9258 6.075 15.7758 6.225C15.6258 6.375 15.4508 6.45 15.2508 6.45ZM15.2508 9.675C15.0508 9.675 14.8758 9.6 14.7258 9.45C14.5758 9.3 14.5008 9.125 14.5008 8.925C14.5008 8.725 14.5758 8.55 14.7258 8.4C14.8758 8.25 15.0508 8.175 15.2508 8.175C15.4508 8.175 15.6258 8.25 15.7758 8.4C15.9258 8.55 16.0008 8.725 16.0008 8.925C16.0008 9.125 15.9258 9.3 15.7758 9.45C15.6258 9.6 15.4508 9.675 15.2508 9.675ZM3.52578 18.5H13.8258V15.75H2.42578V17.375C2.42578 17.7083 2.52995 17.9792 2.73828 18.1875C2.94661 18.3958 3.20911 18.5 3.52578 18.5ZM2.42578 18.5V15.75V18.5Z" fill="#918FA0"/>
</svg>
