<svg width="20" height="19" viewBox="0 0 20 19" fill="none" xmlns="http://www.w3.org/2000/svg">
<path d="M0 19V17.5H9.25V5.4C8.81667 5.25 8.42917 5.00417 8.0875 4.6625C7.74583 4.32083 7.5 3.93333 7.35 3.5H3.375L6.5 11.05C6.48333 11.8 6.1625 12.4375 5.5375 12.9625C4.9125 13.4875 4.15 13.75 3.25 13.75C2.35 13.75 1.5875 13.4875 0.9625 12.9625C0.3375 12.4375 0.0166667 11.8 0 11.05L3.125 3.5H1V2H7.35C7.55 1.41667 7.89167 0.9375 8.375 0.5625C8.85833 0.1875 9.4 0 10 0C10.6 0 11.1417 0.1875 11.625 0.5625C12.1083 0.9375 12.45 1.41667 12.65 2H19V3.5H16.875L20 11.05C19.9833 11.8 19.6625 12.4375 19.0375 12.9625C18.4125 13.4875 17.65 13.75 16.75 13.75C15.85 13.75 15.0875 13.4875 14.4625 12.9625C13.8375 12.4375 13.5167 11.8 13.5 11.05L16.625 3.5H12.65C12.5 3.93333 12.2542 4.32083 11.9125 4.6625C11.5708 5.00417 11.1833 5.25 10.75 5.4V17.5H20V19H0ZM14.875 11H18.625L16.75 6.4L14.875 11ZM1.375 11H5.125L3.25 6.4L1.375 11ZM10 4C10.35 4 10.6458 3.875 10.8875 3.625C11.1292 3.375 11.25 3.08333 11.25 2.75C11.25 2.4 11.1292 2.10417 10.8875 1.8625C10.6458 1.62083 10.35 1.5 10 1.5C9.66667 1.5 9.375 1.62083 9.125 1.8625C8.875 2.10417 8.75 2.4 8.75 2.75C8.75 3.08333 8.875 3.375 9.125 3.625C9.375 3.875 9.66667 4 10 4Z" fill="#918FA0"/>
</svg>
