<svg width="20" height="20" viewBox="0 0 20 20" fill="none" xmlns="http://www.w3.org/2000/svg">
<circle cx="10" cy="10" r="10" fill="#07CC77"/>
<path d="M14.8424 5.75075L8.241 12.7125L4.96313 9.54724C4.84027 9.42337 4.67521 9.35702 4.50539 9.36294C4.33548 9.36898 4.17503 9.44684 4.06034 9.57908C3.94563 9.71121 3.88613 9.88668 3.89549 10.0656C3.90486 10.2446 3.98221 10.412 4.11003 10.5301L7.83332 14.127C7.95332 14.2429 8.11111 14.3056 8.27386 14.3018C8.4366 14.2981 8.59177 14.2283 8.70692 14.107L15.7366 6.69367C15.8962 6.52529 15.9586 6.27963 15.9002 6.04956C15.8417 5.81947 15.6713 5.63984 15.4531 5.57811C15.235 5.51652 15.0021 5.58237 14.8424 5.75075Z" fill="white" stroke="white" stroke-width="0.2"/>
</svg>
